<svg width="682" height="183" viewBox="0 0 682 183" fill="none" xmlns="http://www.w3.org/2000/svg">
    <path d="M81.8 174.9C75.9 173.9 67.6 171.9 63.5 170.5C55.6 167.9 52 167.4 50.4 168.8C49.9 169.3 46 170.5 41.8 171.4C35.5 172.9 33.2 173 28.8 172.1C17.2 169.6 10.7 164.5 5.8 154.2L2.8 147.9L3.3 133.2C3.7 125.1 4.2 116 4.5 113C4.8 110 5.9 96 7 81.9C9.2 52.8 10.8 45.9 17.1 37.3C24.8 27 36.2 21.6 50 21.6C61.9 21.7 72.2 27.6 76.8 37.1C80.5 44.9 81.1 50.1 80 63.9C79.5 70.8 78.1 88.2 77 102.4C74.8 130.1 74.1 134.6 70.4 142.6C67.7 148.3 67.4 151.3 69.3 152.8C70.7 154 90.6 156 100.8 156C107.5 156 108 156.2 108 158.1C108 159.3 107.3 160.8 106.4 161.5C105.2 162.3 104.6 164.8 104.2 169.8L103.7 177L98.1 176.9C95 176.9 87.7 176 81.8 174.9ZM41 152C41 150.9 39.8 148.2 38.4 146.1C35.7 141.9 33 134.2 33 130.3C33 128.1 33.3 128 40.5 128C47 128 48 128.2 48 129.8C48 130.7 48.9 133.4 50 135.8C51.5 139.1 52.4 140 54.4 140C56.2 140 57.1 139.2 58 136.8C59 133.9 64 63.6 64 51.9C64 47.9 63.4 46.6 60.1 42.9L56.2 38.5L47.9 38.6C41.3 38.6 38.8 39.1 36.3 40.6C32.4 43 29.5 46.7 27.5 51.5C25.8 55.4 20 119.5 20 134.1C20 149 23.7 154 34.6 154C40.4 154 41 153.8 41 152Z" fill="black"/>
    <path d="M112 135.3C105.8 134.3 99.5 129.9 96.8 124.7C95 121.3 94.7 119 94.8 112.5C94.9 104.6 100.7 33.9 101.2 33.5C101.4 33.4 104.7 33 108.6 32.8L115.7 32.3L115.3 36.9C115.1 39.4 114.3 49.6 113.5 59.4C112.7 69.2 112.3 77.7 112.6 78.1C112.9 78.6 112.7 80.7 112.1 82.7C111.6 84.8 110.9 92.2 110.6 99.2C110 113.2 110.9 116.7 115.5 118.8C118.8 120.3 150 119.4 151.7 117.7C152.4 117 153.7 106.8 155 92.5C156.1 79.3 158 60.2 159 50C160.1 39.8 161 30.9 161 30.3C161 29.4 163.2 29 168.5 29H176L175.5 32.8C175.2 34.8 174.1 47.5 173 61C171.9 74.5 170.1 94.5 169.1 105.5C168.1 116.5 167.2 127.1 167.1 128.9C167 130.8 166.8 132.5 166.7 132.6C166.3 133 121.7 136 118.1 135.9C116.1 135.8 113.4 135.5 112 135.3Z" fill="black"/>
    <path d="M206.9 127.7C196.5 125.3 190.9 119.5 190.2 110C189.6 102.3 193.7 58.9 195.7 52C197.7 44.7 202.9 37.8 209.9 33.1C218.1 27.6 221.9 26.8 249.8 25.5L261.1 25L259.2 28.7C258.1 30.8 256.7 34.2 256.1 36.3C255.4 38.3 254.5 40 254.2 40C234.3 41 222.7 42.1 219.9 43.3C218 44.1 215.1 46.3 213.3 48.3C209.6 52.5 208.8 56.6 206.4 83.9C203.8 113.4 204.2 113.9 230.7 112.4C240 111.8 247.6 111.5 247.8 111.6C248 111.7 247.1 115.2 245.9 119.3L243.8 126.8L233.1 127.4C227.3 127.8 220.3 128.3 217.5 128.5C214.8 128.7 210 128.4 206.9 127.7Z" fill="black"/>
    <path d="M266 123.1C266 121.9 267.3 107.8 268.9 91.7C270.6 75.7 272.7 54.5 273.6 44.8C274.6 35 275.6 26.6 275.9 26.1C276.2 25.7 279.7 25.1 283.7 24.8L290.8 24.3L290.4 27.4C288.8 39.5 286.6 65.9 286.5 72.5C286.5 80.3 286.6 80.5 289 80.8C291.3 81.1 292.9 79.3 302.5 65.8C317 45.5 332.6 24.6 334.4 23.1C335.3 22.4 338.4 22 342.4 22.2L349.1 22.5L336.9 38C330.3 46.5 324.6 54.2 324.2 55C323.9 55.8 323.1 57 322.4 57.5C318.8 60.5 307 78 307 80.2C307 81.8 310.3 87.5 316 95.5C327.3 111.3 333 119.7 333 120.4C333 120.8 328.6 121 323.1 121H313.3L305.8 109.8C301.7 103.6 296.6 95.7 294.5 92.3C291.6 87.5 290.2 86 288.4 86C287.1 86 285.6 86.8 285.1 87.8C284.6 88.7 283.6 97.3 282.9 106.8L281.6 124H276.1C273 124 269.5 124.3 268.3 124.6C266.4 125.1 266 124.8 266 123.1Z" fill="black"/>
    <path d="M347.4 118.2C347.7 117.2 348.8 113.6 349.9 110L351.9 103.5H364.2C374.7 103.4 377 103.1 380 101.4C384.6 98.7 386.8 94.5 386.9 88.4C387 84.1 386.6 83 384.2 80.7C382.7 79.2 378.3 77 374.4 75.6C363.7 72 359.3 69.4 356.3 64.8C353.9 61.2 353.5 59.7 353.6 53.6C353.8 40.5 361.2 28 372.1 22.4C377.1 19.9 389.4 18.1 401.1 18H406.8L404 25.3L401.2 32.5L390.3 33.3C374.7 34.4 370 37.3 370 45.8C370 55.7 371.7 57.8 383 61.6C386 62.6 390.5 64.6 393 66C404.7 72.6 406.3 91.6 396.3 104.9C389.2 114.3 381.1 117.9 365 118.6C359.2 118.9 352.8 119.2 350.7 119.4C347.5 119.8 347 119.5 347.4 118.2Z" fill="black"/>
    <path d="M432.7 91.3C433.9 78.2 435.6 60 436.5 50.8C437.4 41.6 437.9 33.6 437.5 33.1C437.1 32.4 432.8 32 426.9 32C421.5 32 417 31.7 417 31.3C417 30.4 419.2 18 419.4 17.9C419.8 17.8 469.2 15.1 472.7 15H477L475 20C473.9 22.8 473 25.9 473 26.9C473 28.5 471.8 28.8 464.1 29.4C458.8 29.9 454.7 30.7 454.1 31.4C453.2 32.5 451.1 52.4 446.3 107.2C445.6 114.8 445.4 115 436 115H430.5L432.7 91.3Z" fill="black"/>
    <path d="M470.2 104.8C471.9 100.2 473.9 95.1 474.6 93.3C475.4 91.6 476 89.7 476 89.1C476 88.5 476.5 87.2 477 86.2C477.6 85.3 480.7 77.1 484 68C487.2 58.9 493.1 43 496.9 32.5L503.9 13.5L512.4 13.2C517.1 13.1 521 13.2 521 13.4C521 13.7 522.3 18.8 523.9 24.7C525.5 30.7 528.2 41.1 530 48C531.7 54.9 533.5 61.4 534 62.5C534.4 63.6 535.3 66.8 535.9 69.5C536.5 72.3 539 81.9 541.4 91C543.9 100 545.8 107.5 545.7 107.6C545.6 107.7 542.4 108 538.5 108.2L531.5 108.5L529.9 102.5L528.3 96.5L511.3 96.9C486.1 97.4 487.2 97.1 483.7 105.8L480.8 113H474H467.2L470.2 104.8ZM512.1 83C522.3 83 523 82.9 523 81C523 79 513.4 45.6 512.1 43.3C511.8 42.6 511 42.4 510.4 42.8C508.8 43.9 494.2 81.3 494.8 82.8C495.1 83.8 496.2 84 498.3 83.6C499.9 83.3 506.1 83 512.1 83Z" fill="black"/>
    <path d="M564 105.5C564 104.7 564.4 99.7 565 94.3C568.7 57.5 570.9 26.6 569.8 25.3C568.9 24.1 566.7 24 558.7 24.6L548.7 25.3L549.5 18.4C549.9 14.6 550.4 11.3 550.6 11.1C550.8 10.9 559.6 10.4 570.2 9.9C580.8 9.5 593.6 8.9 598.6 8.6L607.7 8.1L605.7 15.4L603.7 22.8L595.9 23.2C591.6 23.4 587.6 24 587 24.6C586.5 25.1 584.3 43.6 582.3 65.6C580.3 87.5 578.7 105.6 578.6 105.6C578.5 105.7 575.2 106 571.3 106.3C565.4 106.8 564 106.6 564 105.5Z" fill="black"/>
    <path d="M613.4 99.4C613.7 96.7 614.5 88.9 615 82C618 45.6 621.7 9.2 622.5 7.9C622.8 7.6 630.3 7 639.2 6.6C648.2 6.3 660.5 5.7 666.6 5.3L677.7 4.7L676.8 11.6C676.3 15.4 675.8 18.6 675.6 18.7C675.5 18.8 666.9 19.4 656.5 19.9C642.6 20.7 637.2 21.4 636.2 22.4C635.1 23.5 634.7 27.2 634.6 37.7L634.5 51.5L646.8 51.1C653.5 50.9 659 51 659 51.3C659 51.5 657.6 54.7 656 58.3L652.9 64.7L643 65.5C631 66.3 631 66.3 630.2 79.2C629.8 86.4 630 88.1 631.2 88.5C632 88.8 641.2 88.7 651.6 88.2C662 87.7 670.6 87.4 670.7 87.5C670.8 87.5 670.5 89.2 670.1 91.1C669.6 93 668.9 96.1 668.6 98.1L668 101.7L650.2 102.4C640.5 102.7 628.1 103.3 622.6 103.7L612.8 104.3L613.4 99.4Z" fill="black"/>
    <path d="M104.9 177.3C101.6 176.9 101.2 176.6 100.7 173.3C99.9 168.5 101.8 159.9 104.1 157.7C105.5 156.4 107.7 156 114.6 156H123.3L122.5 160.7C122.1 163.4 121.8 168.3 121.9 171.8L122.1 178L115.3 177.8C111.6 177.7 106.9 177.5 104.9 177.3Z" fill="#EEFEF0"/>
    <path d="M118.3 171.8C118.1 168.3 118.5 163.4 119.1 160.8L120.2 156.1L130.1 155.8L140 155.5V163.5C140 169.7 139.5 172.2 138 174.8L136 178H127.2H118.5L118.3 171.8Z" fill="#DFFFEE"/>
    <path d="M658.2 141.8C657.7 141.1 657.2 136.8 657.2 132.3V124H662.2H667.2L666.8 133.5L666.5 143H662.9C660.9 143 658.8 142.4 658.2 141.8Z" fill="#DFFFEE"/>
    <path d="M132 177C132 176.5 133.2 174.4 134.6 172.3C136.8 169 137.1 167.7 136.8 162.3C136.5 156.8 136.6 156.1 138.4 155.6C139.5 155.3 140.7 155.3 141 155.6C142.1 156.8 141.1 170.8 139.6 174.3C138.3 177.4 137.6 178 135.1 178C133.4 178 132 177.6 132 177Z" fill="#CEFFEE"/>
    <path d="M627.6 143.6C625.7 142.1 624.2 135.8 624.1 129.4L624 126.2L637.3 125.6C644.5 125.2 652.5 124.7 655 124.4L659.5 123.9L660.8 128.2C661.7 131.3 661.8 133.4 661.1 135.2C660 138 661.2 140 664.1 140C666 140 667.4 142.6 666 143.5C665.6 143.8 657.2 144.3 647.3 144.6C632.2 145 629.2 144.9 627.6 143.6Z" fill="#CEFFEE"/>
    <path d="M134 177C134 176.4 134.7 174.9 135.5 173.6C137.5 170.6 138.8 162.3 137.9 158.8C137.4 156.9 137.6 156 138.7 155.6C141.9 154.3 142.1 155.1 141.8 163.9L141.5 172.7L145.8 172.2C149.9 171.7 150 171.8 150 174.9V178H142C137.2 178 134 177.6 134 177Z" fill="#B5FFF0"/>
    <path d="M594 146.6C594 145.8 592.8 143.9 591.4 142.5C589.1 140.2 588.8 139.2 589.2 135.5C590 128.9 591.1 128.3 604.1 127.6C610.4 127.2 618.3 126.7 621.7 126.4C627.7 125.9 627.9 125.9 627.8 128.2C627.4 137.6 629.6 142 634.7 142C636.3 142 637 142.6 637 144C637 145.8 636.3 146 628.3 146.2C615.1 146.5 611.8 146.7 602.5 147.4C595.3 148 594 147.9 594 146.6Z" fill="#B5FFF0"/>
    <path d="M641 143.5C641 142.7 641.7 142 642.5 142C643.3 142 644 141.5 644 140.9C644 140.2 644.8 140 646.3 140.5C647.5 140.9 649.3 141.2 650.3 141.1C651.3 141.1 652 141.9 652 143.1C652 144.7 651.3 145 646.5 145C642.3 145 641 144.7 641 143.5Z" fill="#B5FFF0"/>
    <path d="M135 177.6C135 177.4 135.9 175.1 137.1 172.6C138.6 169.2 139.1 166.2 138.9 161.7L138.6 155.5L144.5 155.2L150.3 154.9L149.7 162.3C149.1 168.6 149.3 169.9 150.6 170.4C151.5 170.7 156.6 171 162.1 171H172V173.9C172 176.6 171.7 176.8 166.8 177.4C163.9 177.7 158 178 153.6 178C147.5 178 145.9 177.7 146.3 176.7C146.7 175.7 146.1 175.4 144.4 175.8C143.1 176 142 176.6 142 177.1C142 177.6 140.4 178 138.5 178C136.6 178 135 177.8 135 177.6Z" fill="#9BF8F2"/>
    <path d="M547.8 149.5C546.6 148.3 546.8 142 548 142C548.6 142 549 139.6 549 136.6V131.1L554.3 130.6C559.6 130 589.8 128 593.2 128C594.5 128 595 128.7 595 130.5C595 131.9 594.6 133 594.1 133C591.9 133 592.2 137.3 594.6 139.7C595.9 141 597 142.7 597 143.4C597 144.3 597.9 144.6 599.5 144.2C601.5 143.9 602 144.2 602 145.7C602 147.6 601 147.7 585.8 148.3C576.8 148.7 564.8 149.3 559 149.6C553.2 150 548.2 149.9 547.8 149.5Z" fill="#9BF8F2"/>
    <path d="M606 145.5C606 144.7 606.5 144 607.1 144C607.8 144 608.8 143.2 609.5 142.3C610.6 140.8 611.1 140.7 613.6 142C615.2 142.7 617.1 143.2 617.8 143.1C618.4 143 619 143.8 619 145C619 146.8 618.4 147 612.5 147C607.4 147 606 146.7 606 145.5Z" fill="#9BF8F2"/>
    <path d="M625 144.5C625 143.7 625.7 143 626.5 143C627.3 143 628 142.6 628 142C628 141.5 628.9 141 630 141C631.1 141 632 141.5 632 142.1C632 142.7 632.7 143 633.5 142.6C634.5 142.2 635 142.7 635 144C635 145.7 634.3 146 630 146C626.2 146 625 145.6 625 144.5Z" fill="#9BF8F2"/>
    <path d="M656 142.5C656 141.7 656.7 141 657.5 141C658.3 141 659 140.6 659 140C659 139.5 659.7 139 660.5 139C661.3 139 662 139.5 662 140.1C662 140.7 662.7 141 663.5 140.6C664.5 140.2 665 140.7 665 142C665 143.7 664.3 144 660.5 144C657.2 144 656 143.6 656 142.5Z" fill="#9BF8F2"/>
    <path d="M168.4 175.5C168.8 174.5 168.3 174 166.9 174C165.7 174 165 173.5 165.2 172.8C165.5 171.9 168.2 171.4 172.8 171.2L180 170.9V174V177H173.9C168.9 177 167.9 176.7 168.4 175.5Z" fill="#70EFF3"/>
    <path d="M147.1 173.1C146 172.4 145.8 170.5 146.4 163.9C146.8 159.3 147.2 155.5 147.3 155.4C147.4 155.3 152.8 154.8 159.3 154.5L171 153.7V156.6C171 158.2 170.3 160.4 169.5 161.4C168.7 162.5 168 164.4 168 165.7C168 167 167.5 168 166.9 168C166.4 168 165.4 169.4 164.9 171C163.8 174 163.8 174 156.2 174C151.9 174 147.9 173.6 147.1 173.1Z" fill="#70EFF3"/>
    <path d="M464.5 154C464.2 153.5 462.6 153 460.9 153C458.3 153 458 152.7 458 149.9C458 148.1 457.3 146.2 456.5 145.6C455.7 145 454.8 142.6 454.4 140.3C453.8 136.5 454 136 455.6 136C456.7 136 471.9 135.1 489.5 134C507.1 133 528.5 131.8 537.2 131.4L552.8 130.7L552.5 134.1C552.4 136 552.9 138.5 553.6 139.7C554.8 141.7 554.7 142.1 552.5 143.8C549.9 145.9 550.2 147 553.2 147C554.3 147 555 147.7 555 148.9C555 150.6 553.7 150.9 539.3 151.6C530.6 152.1 517.1 152.5 509.3 152.5C501.4 152.5 495 152.8 495 153.3C495 154.6 481.2 154.1 480.7 152.8C480.4 152 480.1 152.2 480.1 153.3C480 154.8 478.9 155 472.6 155C468.5 155 464.8 154.6 464.5 154Z" fill="#70EFF3"/>
    <path d="M557 148.5C557 147.7 557.5 147 558.1 147C558.8 147 559.9 146.2 560.6 145.3C561.7 143.8 562.2 143.7 563.9 144.8C565.1 145.4 566.9 146 568 146C569.3 146 570 146.7 570 148C570 149.8 569.3 150 563.5 150C558.4 150 557 149.7 557 148.5Z" fill="#70EFF3"/>
    <path d="M573 147.5C573 146.7 573.6 146 574.4 146C575.2 146 576 145.5 576.2 145C576.4 144.3 578.1 144.2 580.8 144.6C584 145.1 585 145.7 585 147.1C585 148.7 584.2 149 579 149C574.3 149 573 148.7 573 147.5Z" fill="#70EFF3"/>
    <path d="M171 176.1C171 175.6 171.6 174.9 172.3 174.7C172.9 174.4 169.2 174.1 163.9 174.1C151.3 174 148 173.3 148 170.8C148 169.8 148.5 169.2 149 169.5C149.5 169.8 150 169.4 150 168.6C150 167.7 150.7 167 151.5 167C153.3 167 153.5 168.6 151.8 169.3C151.1 169.6 151.5 169.9 152.7 169.9C153.9 170 155.2 170.5 155.5 171C155.9 171.6 156.7 171.4 157.6 170.5C158.5 169.7 159.9 169 160.8 168.9C162.2 168.9 162.2 168.7 160.6 168.1C158.9 167.5 159.1 167.2 161.8 166.1C164 165.2 165 164.1 165 162.6C165 161.4 165.7 159.4 166.6 158.1C168 156.2 168 155.6 166.9 154.9C166.1 154.4 166 154 166.5 154C167.1 154 173.1 153.5 180 153C186.9 152.4 193.8 152.3 195.4 152.6C198.2 153.2 198.2 153.4 197.7 158.3C197.4 162.1 196.7 163.8 194.9 165.2C193.6 166.2 192 167.4 191.3 168C190.6 168.5 189.6 169 189.1 169C188.5 169 187.8 170.1 187.4 171.5C187 173.3 186.1 174 184.4 174C182.9 174 182 174.6 182 175.5C182 176.7 180.7 177 176.5 177C173.5 177 171 176.6 171 176.1Z" fill="#53E7F5"/>
    <path d="M421.5 157C421.2 156.5 420 156 418.9 156C417.7 156 417 155.3 417 154.2C417 152.9 415.8 152 413 151.1C410.4 150.3 409 149.3 409 148.2C409 147.3 408.7 144.9 408.4 142.9L407.8 139.3L423.6 138.2C441.8 136.9 463.8 135.9 459.7 136.7C457.5 137 457.1 137.4 458 138.5C458.6 139.2 458.9 140.4 458.8 141.1C458.6 142.1 459.9 142.6 463.5 142.8C466.2 143 469 143.6 469.8 144.2C470.5 144.8 473.8 145.3 477 145.3C481.3 145.2 483 145.6 483 146.5C483 147.3 482.2 148.1 481.3 148.3C479.9 148.7 480.1 148.8 481.8 148.9C483 148.9 484 149.5 484 150C484 151.7 491.2 151.2 492.5 149.3C493.6 147.9 494.2 147.8 498.3 149.1C501.5 150 503 151 503 152.1C503 153.5 501.1 153.8 489.3 154.4C481.7 154.8 466.8 155.5 456.2 156.1C445.6 156.7 436.3 156.9 435.5 156.6C434.7 156.3 434 156.5 434 157C434 158.3 422.3 158.3 421.5 157ZM477 150.5C477 149.7 477.5 149 478.1 149C478.6 149 478.9 148.6 478.6 148.1C477.7 146.7 472.5 148.5 472.2 150.3C471.9 151.5 472.6 152 474.4 152C476 152 477 151.4 477 150.5Z" fill="#53E7F5"/>
    <path d="M510 151.5C510 150.7 510.7 150 511.5 150C512.3 150 513 149.6 513 149C513 148.5 513.9 148 515 148C516.1 148 517 148.4 517 149C517 149.5 517.7 149.7 518.5 149.4C519.5 149 520 149.4 520 150.9C520 152.8 519.4 153 515 153C511.2 153 510 152.6 510 151.5Z" fill="#53E7F5"/>
    <path d="M529 150.5C529 149.7 529.7 149 530.5 149C531.3 149 532 148.6 532 148C532 147.5 532.7 147 533.5 147C534.3 147 535 147.5 535 148.1C535 148.7 535.7 149 536.5 148.6C537.5 148.2 538 148.7 538 150C538 151.7 537.3 152 533.5 152C530.2 152 529 151.6 529 150.5Z" fill="#53E7F5"/>
    <path d="M173 176C173 175.1 173.9 174.9 176 175.4C177.7 175.7 179 175.5 179 175C179 173.8 178.8 173.7 165.3 174C154.1 174.2 150 173.6 150 171.9C150 171.4 153.8 171.3 159.1 171.7C167 172.2 168.4 172.1 169.2 170.7C169.7 169.7 171.4 169 173.2 169C174.9 169 176 168.7 175.7 168.4C175 167.7 180.7 162 182.1 162C182.7 162 184.1 162.9 185.2 164C186.4 165.1 187.6 165.6 187.9 165.2C188.2 164.7 189.5 163.8 190.8 163.1C193 161.9 195.6 157.2 194.5 156.2C194.2 155.9 192.9 156.2 191.5 156.8C189.4 157.8 189 157.7 189 156.3C189 154.9 188.8 154.9 187 156.5C185.8 157.6 184 158.5 182.9 158.7C181 159 181 158.9 182.4 157.4C184.7 155.1 184.4 154 181.3 153.9C174.8 153.6 191.1 152 211 151C222.8 150.4 238.8 149.5 246.5 149C271.6 147.2 275.2 147 302.5 145.4C328.5 144 359.6 142 388 140C403 138.9 419.8 138.9 414 139.9C411.7 140.3 410.9 140.8 411.8 141.3C412.5 141.8 412.8 143.1 412.4 144.5C411.9 146.5 412.4 147 417 148.5C420.7 149.7 422.8 150 424.4 149.3C425.5 148.7 427.1 148.5 427.8 148.7C430.2 149.6 426.9 152 423.1 152.1C421 152.2 420.3 152.4 421.5 152.7C422.6 153 423.9 153.6 424.4 154.1C426 155.5 430.7 155.1 431.4 153.5C432.1 151.7 434.7 151.6 438.3 153.3C441.9 154.9 441.9 158 438.3 158C434.2 158 388.8 160.7 347 163.5C326.4 164.9 302.5 166.5 294 167C285.5 167.5 272.4 168.4 265 169C257.6 169.5 240.9 170.7 228 171.5C201.8 173.2 196.8 173.8 195.9 175.2C195.5 175.8 190.2 176.5 184.1 176.8C175.5 177.2 173 177 173 176Z" fill="#3CDCF3"/>
    <path d="M442 155.5C442 154.7 442.5 154 443.1 154C443.8 154 444.8 153.3 445.4 152.5C447 150.4 454 152.5 454 155.2C454 156.7 453.2 157 448 157C443.3 157 442 156.7 442 155.5Z" fill="#3CDCF3"/>
    <path d="M460 154.5C460 153.7 460.6 153 461.4 153C462.2 153 463 152.4 463.3 151.6C464.1 149.5 472 151.8 472 154.2C472 155.7 471.1 156 466 156C461.3 156 460 155.7 460 154.5Z" fill="#3CDCF3"/>
    <path d="M477 153.5C477 152.7 477.7 152 478.5 152C479.3 152 480 151.6 480 151C480 150.5 480.9 150 482 150C483.1 150 484 150.5 484 151.1C484 151.7 484.7 152 485.5 151.6C486.5 151.2 487 151.7 487 153C487 154.7 486.3 155 482 155C478.2 155 477 154.6 477 153.5Z" fill="#3CDCF3"/>
    <path d="M492 152.5C492 151.7 492.7 151 493.5 151C494.3 151 495 150.6 495 150C495 149.5 495.9 149 497 149C498.1 149 499 149.4 499 150C499 150.5 499.7 150.7 500.5 150.4C501.5 150 502 150.4 502 151.9C502 153.8 501.4 154 497 154C493.2 154 492 153.6 492 152.5Z" fill="#3CDCF3"/>
    <path d="M183 176.1C183 175.6 185 174.9 187.5 174.6C195.8 173.3 192.9 172.5 180.7 172.7C165 172.9 167.4 172.3 187.5 171.1C202.8 170.1 221.6 168.8 269 165.5C280.8 164.7 294.1 163.8 298.5 163.5C302.9 163.2 323.2 161.9 343.5 160.5C363.9 159.2 389.3 157.6 400 157C410.7 156.4 424.9 155.5 431.5 155C443.9 154 474.8 152 519 149.5C533 148.7 554.6 147.4 567 146.5C579.4 145.7 605.5 144.1 625 143C644.5 141.9 661.7 140.8 663.2 140.5C666.1 140 666.9 141.1 666.2 144.7C665.8 146.8 665.2 147 659.6 147C656.3 147 644.7 147.7 634 148.5C604 150.8 588.7 151.8 560.5 153.5C546.2 154.3 527.8 155.5 519.5 156C482.2 158.5 458 160 440 161C429.3 161.5 414.7 162.4 407.5 163C400.4 163.5 379.2 164.9 360.5 166C341.8 167.1 320.2 168.4 312.5 169C298.4 170 277.1 171.3 247.5 173C238.7 173.5 224.5 174.3 216 174.9C207.5 175.5 196.6 176.2 191.8 176.5C186.7 176.8 183 176.7 183 176.1Z" fill="#1D90D1"/>
</svg>
