<svg class="img-fluid" id="outputsvg" xmlns="http://www.w3.org/2000/svg" style="transform: none; transform-origin: 50% 50%; cursor: move; max-height: none;" width="682" height="183" viewBox="0 0 6820 1830"><g id="l3rgHiR9uL9dSol3CIWHDL4" fill="rgb(255,255,250)" style="transform: none;"><g><path id="p1FJF3WBFX" d="M818 1749 c-59 -10 -142 -30 -183 -44 -79 -26 -115 -31 -131 -17 -5 5 -44 17 -86 26 -63 15 -86 16 -130 7 -116 -25 -181 -76 -230 -179 l-30 -63 5 -147 c4 -81 9 -172 12 -202 3 -30 14 -170 25 -311 22 -291 38 -360 101 -446 77 -103 191 -157 329 -157 119 1 222 60 268 155 37 78 43 130 32 268 -5 69 -19 243 -30 385 -22 277 -29 322 -66 402 -27 57 -30 87 -11 102 14 12 213 32 315 32 67 0 72 2 72 21 0 12 -7 27 -16 34 -12 8 -18 33 -22 83 l-5 72 -56 -1 c-31 0 -104 -9 -163 -20z m-408 -229 c0 -11 -12 -38 -26 -59 -27 -42 -54 -119 -54 -158 0 -22 3 -23 75 -23 65 0 75 2 75 18 0 9 9 36 20 60 15 33 24 42 44 42 18 0 27 -8 36 -32 10 -29 60 -732 60 -849 0 -40 -6 -53 -39 -90 l-39 -44 -83 1 c-66 0 -91 5 -116 20 -39 24 -68 61 -88 109 -17 39 -75 680 -75 826 0 149 37 199 146 199 58 0 64 -2 64 -20z"></path><path id="pzLGaDggc" d="M1120 1353 c-62 -10 -125 -54 -152 -106 -18 -34 -21 -57 -20 -122 1 -79 59 -786 64 -790 2 -1 35 -5 74 -7 l71 -5 -4 46 c-2 25 -10 127 -18 225 -8 98 -12 183 -9 187 3 5 1 26 -5 46 -5 21 -12 95 -15 165 -6 140 3 175 49 196 33 15 345 6 362 -11 7 -7 20 -109 33 -252 11 -132 30 -323 40 -425 11 -102 20 -191 20 -197 0 -9 22 -13 75 -13 l75 0 -5 38 c-3 20 -14 147 -25 282 -11 135 -29 335 -39 445 -10 110 -19 216 -20 234 -1 19 -3 36 -4 37 -4 4 -450 34 -486 33 -20 -1 -47 -4 -61 -6z"></path><path id="p1GGDS0NYj" d="M2069 1277 c-104 -24 -160 -82 -167 -177 -6 -77 35 -511 55 -580 20 -73 72 -142 142 -189 82 -55 120 -63 399 -76 l113 -5 -19 37 c-11 21 -25 55 -31 76 -7 20 -16 37 -19 37 -199 10 -315 21 -343 33 -19 8 -48 30 -66 50 -37 42 -45 83 -69 356 -26 295 -22 300 243 285 93 -6 169 -9 171 -8 2 1 -7 36 -19 77 l-21 75 -107 6 c-58 4 -128 9 -156 11 -27 2 -75 -1 -106 -8z"></path><path id="pLgOrQuTj" d="M2660 1231 c0 -12 13 -153 29 -314 17 -160 38 -372 47 -469 10 -98 20 -182 23 -187 3 -4 38 -10 78 -13 l71 -5 -4 31 c-16 121 -38 385 -39 451 0 78 1 80 25 83 23 3 39 -15 135 -150 145 -203 301 -412 319 -427 9 -7 40 -11 80 -9 l67 3 -122 155 c-66 85 -123 162 -127 170 -3 8 -11 20 -18 25 -36 30 -154 205 -154 227 0 16 33 73 90 153 113 158 170 242 170 249 0 4 -44 6 -99 6 l-98 0 -75 -112 c-41 -62 -92 -141 -113 -175 -29 -48 -43 -63 -61 -63 -13 0 -28 8 -33 18 -5 9 -15 95 -22 190 l-13 172 -55 0 c-31 0 -66 3 -78 6 -19 5 -23 2 -23 -15z"></path><path id="pdlhIDKvx" d="M3474 1182 c3 -10 14 -46 25 -82 l20 -65 123 0 c105 -1 128 -4 158 -21 46 -27 68 -69 69 -130 1 -43 -3 -54 -27 -77 -15 -15 -59 -37 -98 -51 -107 -36 -151 -62 -181 -108 -24 -36 -28 -51 -27 -112 2 -131 76 -256 185 -312 50 -25 173 -43 290 -44 l57 0 -28 73 -28 72 -109 8 c-156 11 -203 40 -203 125 0 99 17 120 130 158 30 10 75 30 100 44 117 66 133 256 33 389 -71 94 -152 130 -313 137 -58 3 -122 6 -143 8 -32 4 -37 1 -33 -12z"></path><path id="pLaaY6Ypd" d="M4327 913 c12 -131 29 -313 38 -405 9 -92 14 -172 10 -177 -4 -7 -47 -11 -106 -11 -54 0 -99 -3 -99 -7 0 -9 22 -133 24 -134 4 -1 498 -28 533 -29 l43 0 -20 50 c-11 28 -20 59 -20 69 0 16 -12 19 -89 25 -53 5 -94 13 -100 20 -9 11 -30 210 -78 758 -7 76 -9 78 -103 78 l-55 0 22 -237z"></path><path id="pmt3HJgAM" d="M4702 1048 c17 -46 37 -97 44 -115 8 -17 14 -36 14 -42 0 -6 5 -19 10 -29 6 -9 37 -91 70 -182 32 -91 91 -250 129 -355 l70 -190 85 -3 c47 -1 86 0 86 2 0 3 13 54 29 113 16 60 43 164 61 233 17 69 35 134 40 145 4 11 13 43 19 70 6 28 31 124 55 215 25 90 44 165 43 166 -1 1 -33 4 -72 6 l-70 3 -16 -60 -16 -60 -170 4 c-252 5 -241 2 -276 89 l-29 72 -68 0 -68 0 30 -82z m419 -218 c102 0 109 -1 109 -20 0 -20 -96 -354 -109 -377 -3 -7 -11 -9 -17 -5 -16 11 -162 385 -156 400 3 10 14 12 35 8 16 -3 78 -6 138 -6z"></path><path id="p1BVh2dVyg" d="M5640 1055 c0 -8 4 -58 10 -112 37 -368 59 -677 48 -690 -9 -12 -31 -13 -111 -7 l-100 7 8 -69 c4 -38 9 -71 11 -73 2 -2 90 -7 196 -12 106 -4 234 -10 284 -13 l91 -5 -20 73 -20 74 -78 4 c-43 2 -83 8 -89 14 -5 5 -27 190 -47 410 -20 219 -36 400 -37 400 -1 1 -34 4 -73 7 -59 5 -73 3 -73 -8z"></path><path id="pAceW1mei" d="M6134 994 c3 -27 11 -105 16 -174 30 -364 67 -728 75 -741 3 -3 78 -9 167 -13 90 -3 213 -9 274 -13 l111 -6 -9 69 c-5 38 -10 70 -12 71 -1 1 -87 7 -191 12 -139 8 -193 15 -203 25 -11 11 -15 48 -16 153 l-1 138 123 -4 c67 -2 122 -1 122 2 0 2 -14 34 -30 70 l-31 64 -99 8 c-120 8 -120 8 -128 137 -4 72 -2 89 10 93 8 3 100 2 204 -3 104 -5 190 -8 191 -7 1 0 -2 17 -6 36 -5 19 -12 50 -15 70 l-6 36 -178 7 c-97 3 -221 9 -276 13 l-98 6 6 -49z"></path></g></g><g id="l3LSAXV5QZUd4BtQdbiJhA0" fill="rgb(238,254,240)" style="transform: none;"><g><path id="p0A3zZJ4a" d="M1049 1773 c-33 -4 -37 -7 -42 -40 -8 -48 11 -134 34 -156 14 -13 36 -17 105 -17 l87 0 -8 47 c-4 27 -7 76 -6 111 l2 62 -68 -2 c-37 -1 -84 -3 -104 -5z"></path></g></g><g id="l2jhDADQ8JppgAfzyTQnh2e" fill="rgb(223,255,238)" style="transform: none;"><g><path id="pVl9k6bIp" d="M1183 1718 c-2 -35 2 -84 8 -110 l11 -47 99 -3 99 -3 0 80 c0 62 -5 87 -20 113 l-20 32 -88 0 -87 0 -2 -62z"></path><path id="plJBMC0yz" d="M6582 1418 c-5 -7 -10 -50 -10 -95 l0 -83 50 0 50 0 -4 95 -3 95 -36 0 c-20 0 -41 -6 -47 -12z"></path></g></g><g id="l1rs9EMq6YOo5nITgeUEXtb" fill="rgb(206,255,238)" style="transform: none;"><g><path id="pxqu4tRk5" d="M1320 1770 c0 -5 12 -26 26 -47 22 -33 25 -46 22 -100 -3 -55 -2 -62 16 -67 11 -3 23 -3 26 0 11 12 1 152 -14 187 -13 31 -20 37 -45 37 -17 0 -31 -4 -31 -10z"></path><path id="pCee8NitT" d="M6276 1436 c-19 -15 -34 -78 -35 -142 l-1 -32 133 -6 c72 -4 152 -9 177 -12 l45 -5 13 43 c9 31 10 52 3 70 -11 28 1 48 30 48 19 0 33 26 19 35 -4 3 -88 8 -187 11 -151 4 -181 3 -197 -10z"></path></g></g><g id="l6He3bTG454PZnUOny1tDWf" fill="rgb(181,255,240)" style="transform: none;"><g><path id="pZ0pXD2eG" d="M1340 1770 c0 -6 7 -21 15 -34 20 -30 33 -113 24 -148 -5 -19 -3 -28 8 -32 32 -13 34 -5 31 83 l-3 88 43 -5 c41 -5 42 -4 42 27 l0 31 -80 0 c-48 0 -80 -4 -80 -10z"></path><path id="pLABJysBx" d="M5940 1466 c0 -8 -12 -27 -26 -41 -23 -23 -26 -33 -22 -70 8 -66 19 -72 149 -79 63 -4 142 -9 176 -12 60 -5 62 -5 61 18 -4 94 18 138 69 138 16 0 23 6 23 20 0 18 -7 20 -87 22 -132 3 -165 5 -258 12 -72 6 -85 5 -85 -8z"></path><path id="phLSQv40J" d="M6410 1435 c0 -8 7 -15 15 -15 8 0 15 -5 15 -11 0 -7 8 -9 23 -4 12 4 30 7 40 6 10 0 17 8 17 20 0 16 -7 19 -55 19 -42 0 -55 -3 -55 -15z"></path></g></g><g id="l3SR0ZGV9i4iEsqUlTyoyJd" fill="rgb(155,248,242)" style="transform: none;"><g><path id="pzk2cM0Wn" d="M1350 1776 c0 -2 9 -25 21 -50 15 -34 20 -64 18 -109 l-3 -62 59 -3 58 -3 -6 74 c-6 63 -4 76 9 81 9 3 60 6 115 6 l99 0 0 29 c0 27 -3 29 -52 35 -29 3 -88 6 -132 6 -61 0 -77 -3 -73 -13 4 -10 -2 -13 -19 -9 -13 2 -24 8 -24 13 0 5 -16 9 -35 9 -19 0 -35 -2 -35 -4z"></path><path id="p1CurBJhVr" d="M5478 1495 c-12 -12 -10 -75 2 -75 6 0 10 -24 10 -54 l0 -55 53 -5 c53 -6 355 -26 389 -26 13 0 18 7 18 25 0 14 -4 25 -9 25 -22 0 -19 43 5 67 13 13 24 30 24 37 0 9 9 12 25 8 20 -3 25 0 25 15 0 19 -10 20 -162 26 -90 4 -210 10 -268 13 -58 4 -108 3 -112 -1z"></path><path id="pyh4Isnx1" d="M6060 1455 c0 -8 5 -15 11 -15 7 0 17 -8 24 -17 11 -15 16 -16 41 -3 16 7 35 12 42 11 6 -1 12 7 12 19 0 18 -6 20 -65 20 -51 0 -65 -3 -65 -15z"></path><path id="pg9CqhhVY" d="M6250 1445 c0 -8 7 -15 15 -15 8 0 15 -4 15 -10 0 -5 9 -10 20 -10 11 0 20 5 20 11 0 6 7 9 15 5 10 -4 15 1 15 14 0 17 -7 20 -50 20 -38 0 -50 -4 -50 -15z"></path><path id="p192KPNqAb" d="M6560 1425 c0 -8 7 -15 15 -15 8 0 15 -4 15 -10 0 -5 7 -10 15 -10 8 0 15 5 15 11 0 6 7 9 15 5 10 -4 15 1 15 14 0 17 -7 20 -45 20 -33 0 -45 -4 -45 -15z"></path></g></g><g id="l6gonz8GNieie82IkhPTsGH" fill="rgb(112,239,243)" style="transform: none;"><g><path id="p10MjqFBRS" d="M1684 1755 c4 -10 -1 -15 -15 -15 -12 0 -19 -5 -17 -12 3 -9 30 -14 76 -16 l72 -3 0 31 0 30 -61 0 c-50 0 -60 -3 -55 -15z"></path><path id="p13Y1UdW75" d="M1471 1731 c-11 -7 -13 -26 -7 -92 4 -46 8 -84 9 -85 1 -1 55 -6 120 -9 l117 -8 0 29 c0 16 -7 38 -15 48 -8 11 -15 30 -15 43 0 13 -5 23 -11 23 -5 0 -15 14 -20 30 -11 30 -11 30 -87 30 -43 0 -83 -4 -91 -9z"></path><path id="pQwQ3sKNP" d="M4645 1540 c-3 -5 -19 -10 -36 -10 -26 0 -29 -3 -29 -31 0 -18 -7 -37 -15 -43 -8 -6 -17 -30 -21 -53 -6 -38 -4 -43 12 -43 11 0 163 -9 339 -20 176 -10 390 -22 477 -26 l156 -7 -3 34 c-1 19 4 44 11 56 12 20 11 24 -11 41 -26 21 -23 32 7 32 11 0 18 7 18 19 0 17 -13 20 -157 27 -87 5 -222 9 -300 9 -79 0 -143 3 -143 8 0 13 -138 8 -143 -5 -3 -8 -6 -6 -6 5 -1 15 -12 17 -75 17 -41 0 -78 -4 -81 -10z"></path><path id="puV3DXOpB" d="M5570 1485 c0 -8 5 -15 11 -15 7 0 18 -8 25 -17 11 -15 16 -16 33 -5 12 6 30 12 41 12 13 0 20 7 20 20 0 18 -7 20 -65 20 -51 0 -65 -3 -65 -15z"></path><path id="p6hnuPNxc" d="M5730 1475 c0 -8 6 -15 14 -15 8 0 16 -5 18 -10 2 -7 19 -8 46 -4 32 5 42 11 42 25 0 16 -8 19 -60 19 -47 0 -60 -3 -60 -15z"></path></g></g><g id="l3RkrDRU0txAT3kDuG1RGF6" fill="rgb(83,231,245)" style="transform: none;"><g><path id="p11D6K1k8y" d="M1710 1761 c0 -5 6 -12 13 -14 6 -3 -31 -6 -84 -6 -126 -1 -159 -8 -159 -33 0 -10 5 -16 10 -13 5 3 10 -1 10 -9 0 -9 7 -16 15 -16 18 0 20 16 3 23 -7 3 -3 6 9 6 12 1 25 6 28 11 4 6 12 4 21 -5 9 -8 23 -15 32 -16 14 0 14 -2 -2 -8 -17 -6 -15 -9 12 -20 22 -9 32 -20 32 -35 0 -12 7 -32 16 -45 14 -19 14 -25 3 -32 -8 -5 -9 -9 -4 -9 6 0 66 -5 135 -10 69 -6 138 -7 154 -4 28 6 28 8 23 57 -3 38 -10 55 -28 69 -13 10 -29 22 -36 28 -7 5 -17 10 -22 10 -6 0 -13 11 -17 25 -4 18 -13 25 -30 25 -15 0 -24 6 -24 15 0 12 -13 15 -55 15 -30 0 -55 -4 -55 -9z"></path><path id="pGmjbSq7y" d="M4215 1570 c-3 -5 -15 -10 -26 -10 -12 0 -19 -7 -19 -18 0 -13 -12 -22 -40 -31 -26 -8 -40 -18 -40 -29 0 -9 -3 -33 -6 -53 l-6 -36 158 -11 c182 -13 402 -23 361 -15 -22 3 -26 7 -17 18 6 7 9 19 8 26 -2 10 11 15 47 17 27 2 55 8 63 14 7 6 40 11 72 11 43 -1 60 3 60 12 0 8 -8 16 -17 18 -14 4 -12 5 5 6 12 0 22 6 22 11 0 17 72 12 85 -7 11 -14 17 -15 58 -2 32 9 47 19 47 30 0 14 -19 17 -137 23 -76 4 -225 11 -331 17 -106 6 -199 8 -207 5 -8 -3 -15 -1 -15 4 0 13 -117 13 -125 0z m555 -65 c0 -8 5 -15 11 -15 5 0 8 -4 5 -9 -9 -14 -61 4 -64 22 -3 12 4 17 22 17 16 0 26 -6 26 -15z"></path><path id="pzyanBQZ8" d="M5100 1515 c0 -8 7 -15 15 -15 8 0 15 -4 15 -10 0 -5 9 -10 20 -10 11 0 20 4 20 10 0 5 7 7 15 4 10 -4 15 0 15 15 0 19 -6 21 -50 21 -38 0 -50 -4 -50 -15z"></path><path id="p142an99Uj" d="M5290 1505 c0 -8 7 -15 15 -15 8 0 15 -4 15 -10 0 -5 7 -10 15 -10 8 0 15 5 15 11 0 6 7 9 15 5 10 -4 15 1 15 14 0 17 -7 20 -45 20 -33 0 -45 -4 -45 -15z"></path></g></g><g id="l5mK9cFKP2bMx6Q5qNpjrXb" fill="rgb(60,220,243)" style="transform: none;"><g><path id="pQbv2hoOx" d="M1730 1760 c0 -9 9 -11 30 -6 17 3 30 1 30 -4 0 -12 -2 -13 -137 -10 -112 2 -153 -4 -153 -21 0 -5 38 -6 91 -2 79 5 93 4 101 -10 5 -10 22 -17 40 -17 17 0 28 -3 25 -6 -7 -7 50 -64 64 -64 6 0 20 9 31 20 12 11 24 16 27 12 3 -5 16 -14 29 -21 22 -12 48 -59 37 -69 -3 -3 -16 0 -30 6 -21 10 -25 9 -25 -5 0 -14 -2 -14 -20 2 -12 11 -30 20 -41 22 -19 3 -19 2 -5 -13 23 -23 20 -34 -11 -35 -65 -3 98 -19 297 -29 118 -6 278 -15 355 -20 251 -18 287 -20 560 -36 260 -14 571 -34 855 -54 150 -11 318 -11 260 -1 -23 4 -31 9 -22 14 7 5 10 18 6 32 -5 20 0 25 46 40 37 12 58 15 74 8 11 -6 27 -8 34 -6 24 9 -9 33 -47 34 -21 1 -28 3 -16 6 11 3 24 9 29 14 16 14 63 10 70 -6 7 -18 33 -19 69 -2 36 16 36 47 0 47 -41 0 -495 27 -913 55 -206 14 -445 30 -530 35 -85 5 -216 14 -290 20 -74 5 -241 17 -370 25 -262 17 -312 23 -321 37 -4 6 -57 13 -118 16 -86 4 -111 2 -111 -8z"></path><path id="ppVcaeft6" d="M4420 1555 c0 -8 5 -15 11 -15 7 0 17 -7 23 -15 16 -21 86 0 86 27 0 15 -8 18 -60 18 -47 0 -60 -3 -60 -15z"></path><path id="pAGB9WEUO" d="M4600 1545 c0 -8 6 -15 14 -15 8 0 16 -6 19 -14 8 -21 87 2 87 26 0 15 -9 18 -60 18 -47 0 -60 -3 -60 -15z"></path><path id="p14fcIAsvF" d="M4770 1535 c0 -8 7 -15 15 -15 8 0 15 -4 15 -10 0 -5 9 -10 20 -10 11 0 20 5 20 11 0 6 7 9 15 5 10 -4 15 1 15 14 0 17 -7 20 -50 20 -38 0 -50 -4 -50 -15z"></path><path id="pMjrTma3P" d="M4920 1525 c0 -8 7 -15 15 -15 8 0 15 -4 15 -10 0 -5 9 -10 20 -10 11 0 20 4 20 10 0 5 7 7 15 4 10 -4 15 0 15 15 0 19 -6 21 -50 21 -38 0 -50 -4 -50 -15z"></path></g></g><g id="l371sKf1mW4UI17uV0ahRaE" fill="rgb(29,144,209)" style="transform: none;"><g><path id="ppmkXq0Cj" d="M1830 1761 c0 -5 20 -12 45 -15 83 -13 54 -21 -68 -19 -157 2 -133 -4 68 -16 153 -10 341 -23 815 -56 118 -8 251 -17 295 -20 44 -3 247 -16 450 -30 204 -13 458 -29 565 -35 107 -6 249 -15 315 -20 124 -10 433 -30 875 -55 140 -8 356 -21 480 -30 124 -8 385 -24 580 -35 195 -11 367 -22 382 -25 29 -5 37 6 30 42 -4 21 -10 23 -66 23 -33 0 -149 7 -256 15 -300 23 -453 33 -735 50 -143 8 -327 20 -410 25 -373 25 -615 40 -795 50 -107 5 -253 14 -325 20 -71 5 -283 19 -470 30 -187 11 -403 24 -480 30 -141 10 -354 23 -650 40 -88 5 -230 13 -315 19 -85 6 -194 13 -242 16 -51 3 -88 2 -88 -4z"></path></g></g></svg>